<?xml version="1.0" encoding="UTF-8"?>
<!-- Generator: Adobe Illustrator 16.0.0, SVG Export Plug-In . SVG Version: 6.00 Build 0)  -->
<!DOCTYPE svg PUBLIC "-//W3C//DTD SVG 1.1//EN" "http://www.w3.org/Graphics/SVG/1.1/DTD/svg11.dtd">
<svg version="1.1" id="Layer_1" xmlns="http://www.w3.org/2000/svg" xmlns:xlink="http://www.w3.org/1999/xlink" x="0px" y="0px" width="190.016px" height="47px" viewBox="0 0 190.016 47" enable-background="new 0 0 190.016 47" xml:space="preserve">
<g>
	<path fill="#FFFFFF" d="M65.36,24.08c-0.553-2.622-2.285-5.393-3.986-7.268c-0.783,0.077-1.727-0.028-2.103,0.501   c-0.225-0.507,1-1.032,1.49-1.379c-0.309-1.216-2.113-0.889-2.903-0.182c0.172-0.768,0.822-0.988,1.176-1.541   c-0.722-1.175-1.776-1.958-3.322-2.179c0.072-0.674,0.01-1.192-0.11-1.645c-3.351-4.643-10.624-8.809-18.273-8.924   c-2.053-0.034-3.958,0.893-5.983,0.563c-1.766-0.287-3.913-1.475-6.441-1.193c-2.571,0.293-5.177,0.966-6.739-0.895   c1.021,4.676,4.013,7.27,8.798,7.557c-0.768-1.06-3.256-1.259-3.489-2.937c3.539-0.099,6.105-0.231,7.745,1.877   c-3.07,4.134-10.162,2.186-12.043-1.192l-0.348,0.021C6.116,6.423,0.724,16.215,0.724,16.215c0.311-0.214,1.182-0.679,2.385-1.27   c5.779-1.335,19.539-2.196,23.904,0.927c-1.816,2.158-5.719,1.048-6.768-0.839l-0.199,0.012   c-7.274,0.667-10.363,6.275-10.363,6.275c0.175-0.126,0.679-0.392,1.368-0.729c2.976-0.691,9.664-1.154,12.793,0.065   c-0.43,0.939-0.772,1.955-1.004,3.036c-1.115,0.144-2.39-0.43-2.837-1.225l-0.122,0.006c-4.515,0.407-6.424,3.885-6.424,3.885   c0.11-0.077,0.415-0.244,0.845-0.447c1.953-0.454,6.45-0.751,8.234,0.171c-0.039,0.651-0.039,1.312,0.011,1.997   c0.486,7.335,7.302,9.807,13.23,10.719c-2.798-1.86-5.894-4.063-5.226-9.03c0.248-1.843,1.406-3.885,2.411-5.287   c2.798-3.908,8.488-6.181,13.842-5.282c-2.218-2.494-6.949-3.626-11.149-4.427c0.194,0.906,1.805,1.688,2.17,2.986   c-5.56,1.783-9.351,5.53-10.349,12.396c-1.53-6.562,2.826-11.198,6.054-14.327c-1.325-1.248-3.312-1.716-3.919-3.787   c10.448,0.387,19.053,2.925,22.711,11.215c-6.075-5.133-19.802-1.65-17.826,9.57c0.321,1.854,1.133,3.434,1.965,4.459   c1.215,1.502,3.786,2.313,4.543,4.482c0.263,0.755-0.023,1.804,0.563,2.714c0.988,1.513,4.907,2.914,7.223,1.199   c-0.032-2.688,1.408-3.749,2.406-5.294c-2.157-1.511-6.97,0.062-8.808-1.826c1.833-0.177,10.784,2.682,10.221-2.297   c-1.263,1.259-4.972,2.374-5.298-0.767c-0.402,0.381-0.524,1.06-1.165,1.175c-0.645,0.034-0.645-0.672-0.772-1.235   c-0.635,0.116-0.474,1.114-1.319,1.004c0.023-0.437-0.264-0.524-0.126-1.094c-0.332-0.21-1.104,1.083-1.616,0.282   c0.039-1.993,1.875-3.4,3.36-4.791c1.347-1.274,3.141-3.262,4.929-3.438c4.039-0.408,6.33,5.194,2.986,8.257   c1.892-0.409,3.83-1.905,3.967-3.566c0.188-2.197-2.351-3.824-3.729-4.712c3.052-0.415,3.918,3.25,5.155,5.546   c1.008-1.336,5.369-3.858,5.501-6.221c0.046-0.933-0.789-1.154-1.385-2.302c-0.629-1.197-0.635-2.483-2.186-2.616   C63.511,19.918,62.997,24.517,65.36,24.08 M26.862,16.397l0.199-0.486c0.062,0.044,0.121,0.089,0.178,0.139   C27.111,16.159,26.984,16.275,26.862,16.397 M47.493,12.004c-0.557-1.237-0.899-2.738-1.163-4.322   c1.953,1.16,3.499,2.798,4.695,4.835C50.11,12.749,48.476,12.291,47.493,12.004"/>
	<g>
		<path fill="#FFFFFF" d="M79.127,10.841h10.619c5.38,0,6.963,3.481,6.365,7.49c-0.387,2.532-2.074,4.606-4.501,4.888    c2.18,0.352,3.691,2.918,3.234,6.436c-0.844,6.013-3.656,6.927-9.072,6.927H75.047L79.127,10.841z M86.3,31.588    c1.442,0,2.462-0.773,2.813-2.989c0.282-1.617-0.07-3.13-1.828-3.13h-4.712l-0.985,6.119H86.3z M87.777,20.758    c1.441,0,2.355-0.95,2.566-2.427c0.316-2.004-0.633-2.497-1.793-2.497H84.12l-0.773,4.924H87.777z"/>
		<path fill="#FFFFFF" d="M98.504,17.909h5.766l-2.953,18.672H95.55L98.504,17.909z M99.347,11.685    c0.071-0.527,0.422-0.879,0.985-0.879h4.395c0.528,0,0.703,0.387,0.634,0.879l-0.527,3.552c-0.07,0.527-0.456,0.809-0.949,0.809    h-4.361c-0.492,0-0.772-0.317-0.703-0.809L99.347,11.685z"/>
		<path fill="#FFFFFF" d="M120.732,16.749c0.739-4.677,3.904-5.943,6.964-5.908c0,0,7.735,0.141,10.795,0.563l-0.773,4.817h-9.283    c-1.794,0-2.005,1.019-2.146,1.969l-0.456,2.919l9.388,0.352l-0.738,4.782l-9.529,0.316l-1.583,10.022h-5.767L120.732,16.749z"/>
		<path fill="#FFFFFF" d="M138.089,17.909h5.768l-1.968,12.343c-0.282,1.758,0.28,2.18,1.301,2.18c1.688,0,2.742-0.422,3.902-1.477    l2.04-13.046h5.768l-2.955,18.673h-4.747l-0.702-1.899c-1.689,1.336-3.096,2.215-5.943,2.215c-4.572,0-5.029-2.989-4.433-6.787    L138.089,17.909z"/>
		<path fill="#FFFFFF" d="M157.094,17.909h4.995l0.421,2.356c1.195-1.265,3.061-2.531,5.169-2.531c0.738,0,1.371,0,1.865,0.211    l-0.881,5.521c-0.526-0.035-1.653-0.035-2.707-0.035c-1.759,0-3.306,0.175-4.29,2.074l-1.758,11.077h-5.768L157.094,17.909z"/>
		<path fill="#FFFFFF" d="M176.496,17.909l0.773,12.52c0.105,1.23,1.16,1.335,1.582,1.371l3.973-9.6    c0.388-0.949,0.704-2.285,0.914-4.325h5.416c0.458,2.32-0.315,4.712-1.02,6.33l-5.381,12.378    c-3.973,9.073-9.423,9.986-11.885,10.373v-4.044c3.235-1.617,4.817-3.762,6.118-6.329c-3.306,0-4.993-1.828-5.274-5.064    l-1.196-13.609H176.496z"/>
		<path fill="#FFFFFF" d="M114.569,22.059h3.729l0.633-4.185h-3.692l0.81-5.204h-5.41l-1.167,5.204h-3.516l-0.63,4.185h3.478    l-1.231,7.841c-0.772,4.854,1.442,6.717,4.397,6.717h3.761l0.529-3.481c-0.176,0-1.865-0.704-1.865-0.704    c-0.88-0.421-1.336-0.844-0.914-3.586L114.569,22.059z"/>
	</g>
</g>
</svg>