<?xml version="1.0" encoding="UTF-8" standalone="no"?>
<svg
   xmlns:sketch="http://www.bohemiancoding.com/sketch/ns"
   xmlns:dc="http://purl.org/dc/elements/1.1/"
   xmlns:cc="http://creativecommons.org/ns#"
   xmlns:rdf="http://www.w3.org/1999/02/22-rdf-syntax-ns#"
   xmlns:svg="http://www.w3.org/2000/svg"
   xmlns="http://www.w3.org/2000/svg"
   xmlns:sodipodi="http://sodipodi.sourceforge.net/DTD/sodipodi-0.dtd"
   xmlns:inkscape="http://www.inkscape.org/namespaces/inkscape"
   width="320px"
   height="85px"
   viewBox="0 0 320 85"
   version="1.1"
   id="svg22"
   sodipodi:docname="clever-cloud.svg"
   inkscape:version="0.92.1 r">
  <metadata
     id="metadata26">
    <rdf:RDF>
      <cc:Work
         rdf:about="">
        <dc:format>image/svg+xml</dc:format>
        <dc:type
           rdf:resource="http://purl.org/dc/dcmitype/StillImage" />
      </cc:Work>
    </rdf:RDF>
  </metadata>
  <sodipodi:namedview
     pagecolor="#ffffff"
     bordercolor="#666666"
     borderopacity="1"
     objecttolerance="10"
     gridtolerance="10"
     guidetolerance="10"
     inkscape:pageopacity="0"
     inkscape:pageshadow="2"
     inkscape:window-width="1918"
     inkscape:window-height="1042"
     id="namedview24"
     showgrid="false"
     inkscape:zoom="4.2"
     inkscape:cx="191.22038"
     inkscape:cy="63.585163"
     inkscape:window-x="1920"
     inkscape:window-y="18"
     inkscape:window-maximized="0"
     inkscape:current-layer="svg22" />
  <!-- Generator: Sketch 3.5.1 (25234) - http://www.bohemiancoding.com/sketch -->
  <title
     id="title2">sharp-cut</title>
  <desc
     id="desc4">Created with Sketch.</desc>
  <defs
     id="defs6" />
  <g
     style="fill:none;fill-rule:evenodd;stroke:none;stroke-width:1"
     id="Clever-Square"
     sketch:type="MSLayerGroup"
     transform="translate(10,8)">
    <rect
       id="Rectangle-1"
       sketch:type="MSShapeGroup"
       x="0"
       y="0"
       width="68"
       height="68"
       rx="4"
       style="fill:#cb243c" />
    <g
       id="logo-bottle"
       transform="translate(26.928,14.008)"
       sketch:type="MSShapeGroup"
       style="fill:#ffffff">
      <g
         id="Page-1">
        <g
           id="Group-7">
          <path
             d="M 6.3652845,11.256264 H 5.2869796 c 0,0 -0.1249749,0.08376 -0.083082,0.207639 l 0.040485,0.124231 0.1260311,1.659349 c 0,0 -0.1665159,0.08341 -0.2084089,0.373398 -0.041189,0.290342 0.2907867,1.079017 0.2907867,1.079017 0,0 -0.082378,12.29502 -0.082378,12.329861 -0.024291,3.443633 -4.82896116,5.600259 -4.71560361,9.744233 0.0827299,3.041026 2.77655581,3.321514 5.21127881,3.321514 2.0084,0 5.3182993,0.299844 6.0357613,-2.123193 1.481041,-4.997755 -4.5142355,-6.972434 -4.5409906,-10.942554 0,-0.03484 -0.082378,-12.329861 -0.082378,-12.329861 0,0 0.3319757,-0.788675 0.2907868,-1.079017 -0.041893,-0.28999 -0.2084089,-0.373398 -0.2084089,-0.373398 l 0.1253269,-1.659349 0.041189,-0.124231 c 0.041893,-0.123879 -0.083434,-0.207639 -0.083434,-0.207639 H 6.3652845 Z"
             id="Fill-1"
             inkscape:connector-curvature="0" />
          <path
             d="M 0.17705369,8.1411223 C 0.45411081,8.7865615 1.4292673,9.0631784 1.7971513,9.0631784 H 11.989826 c 0.360139,0 1.051197,-0.2565569 1.422602,-0.6873189 C 14.086236,7.5973907 14.566774,6.2494994 14.092925,4.8245356 13.355397,2.6140644 11.881045,2.0618865 9.576225,2.7066219 9.3005761,1.6923601 8.8390489,-0.42555354 5.7065785,0.12697628 3.4982186,0.51585874 3.4024632,3.4428591 3.7710512,3.8113296 0.17705369,3.7423514 -0.42106579,6.7450166 0.17705369,8.1411223"
             id="Fill-3"
             inkscape:connector-curvature="0" />
          <path
             d="M 5.3586906,8.6566643 6.1293107,9.8891225 7.3628661,8.6566643 Z"
             id="Fill-5"
             inkscape:connector-curvature="0" />
        </g>
      </g>
    </g>
  </g>
  <g
     id="logo-vecto"
     sketch:type="MSLayerGroup"
     transform="translate(88,27)"
     style="fill:#ffffff;fill-rule:evenodd;stroke:none;stroke-width:1">
    <path
       d="m 125.08733,17.218931 c 0,-1.335829 0.23073,-2.598775 0.6922,-3.788876 0.46146,-1.190102 1.11115,-2.228389 1.94908,-3.114894 0.83793,-0.8865039 1.83979,-1.5847674 3.0056,-2.0948109 1.16581,-0.5100436 2.45305,-0.7650615 3.86174,-0.7650615 1.7973,0 3.36383,0.4068143 4.69966,1.2204552 1.33583,0.8136409 2.34376,1.9126472 3.02382,3.2970512 l -2.40448,0.765061 c -0.53433,-0.971511 -1.28117,-1.730493 -2.24054,-2.276969 -0.95937,-0.5464749 -2.02194,-0.8197084 -3.18775,-0.8197084 -0.97152,0 -1.87622,0.1942994 -2.71415,0.5829044 -0.83793,0.388604 -1.56655,0.916856 -2.18589,1.58477 -0.61934,0.667914 -1.10509,1.463327 -1.45726,2.386263 -0.35217,0.922936 -0.52826,1.930864 -0.52826,3.023815 0,1.068662 0.18216,2.07659 0.54647,3.023814 0.36432,0.947224 0.86221,1.766924 1.4937,2.459126 0.63148,0.692202 1.36617,1.238669 2.2041,1.639418 0.83793,0.400748 1.73049,0.60112 2.67772,0.60112 0.60719,0 1.2083,-0.08501 1.80336,-0.255021 0.59505,-0.170014 1.14759,-0.406817 1.65763,-0.710414 0.51004,-0.303598 0.94722,-0.649693 1.31153,-1.038298 0.36432,-0.388604 0.61934,-0.801491 0.76506,-1.238671 l 2.44092,0.72863 c -0.26717,0.680058 -0.65577,1.305459 -1.16581,1.876222 -0.51005,0.570763 -1.11116,1.068656 -1.80336,1.493692 -0.6922,0.425036 -1.45726,0.752916 -2.29519,0.98365 -0.83793,0.230734 -1.7062,0.3461 -2.60485,0.3461 -1.3844,0 -2.65949,-0.26109 -3.82531,-0.783278 -1.16581,-0.522187 -2.17374,-1.238666 -3.02381,-2.149458 -0.85007,-0.910792 -1.5119,-1.961223 -1.98552,-3.151325 -0.47361,-1.190102 -0.71041,-2.465191 -0.71041,-3.825307 z M 147.50905,0.16898859 h 2.47734 V 22.465067 c 0,0.704345 0.1943,1.256884 0.58291,1.657633 0.3886,0.400748 0.93507,0.60112 1.63941,0.60112 0.26717,0 0.58291,-0.03643 0.94722,-0.109295 0.36432,-0.07286 0.70434,-0.170013 1.02008,-0.291452 l 0.43718,2.003733 c -0.46147,0.194302 -1.02615,0.35217 -1.69406,0.473609 -0.66792,0.121439 -1.24474,0.182158 -1.7305,0.182158 -1.14152,0 -2.04016,-0.321809 -2.69593,-0.965435 -0.65577,-0.643627 -0.98365,-1.548333 -0.98365,-2.714147 z M 166.39692,27.128299 c -1.38441,0 -2.64735,-0.26109 -3.78888,-0.783278 -1.14153,-0.522187 -2.13124,-1.232594 -2.96917,-2.131242 -0.83792,-0.898649 -1.48761,-1.943008 -1.94908,-3.133109 -0.46147,-1.190102 -0.6922,-2.440904 -0.6922,-3.752445 0,-1.335828 0.2368,-2.598774 0.71041,-3.788876 0.47362,-1.190101 1.12938,-2.234461 1.9673,-3.133109 0.83793,-0.8986481 1.82765,-1.6151271 2.96917,-2.1494584 1.14153,-0.5343313 2.39233,-0.801493 3.75245,-0.801493 1.36011,0 2.61699,0.2671617 3.77066,0.801493 1.15367,0.5343313 2.14945,1.2508103 2.98738,2.1494584 0.83793,0.898648 1.49369,1.943008 1.9673,3.133109 0.47361,1.190102 0.71042,2.453048 0.71042,3.788876 0,1.311541 -0.23074,2.562343 -0.6922,3.752445 -0.46147,1.190101 -1.11116,2.23446 -1.94909,3.133109 -0.83793,0.898648 -1.83371,1.609055 -2.98738,2.131242 -1.15367,0.522188 -2.42269,0.783278 -3.80709,0.783278 z m -6.88556,-9.763642 c 0,1.068662 0.18216,2.058375 0.54648,2.969167 0.36431,0.910792 0.85613,1.712277 1.47547,2.404479 0.61934,0.692202 1.34796,1.232597 2.18589,1.621202 0.83793,0.388604 1.73049,0.582904 2.67772,0.582904 0.94722,0 1.83978,-0.200372 2.67771,-0.60112 0.83793,-0.400749 1.57263,-0.947216 2.20411,-1.639418 0.63148,-0.692202 1.12937,-1.499759 1.49369,-2.422694 0.36432,-0.922936 0.54647,-1.918721 0.54647,-2.987383 0,-1.044375 -0.18215,-2.034088 -0.54647,-2.969168 -0.36432,-0.93508 -0.86221,-1.748708 -1.49369,-2.44091 -0.63148,-0.692202 -1.36618,-1.238669 -2.20411,-1.639418 -0.83793,-0.4007482 -1.73049,-0.6011194 -2.67771,-0.6011194 -0.94723,0 -1.83372,0.2003712 -2.6595,0.6011194 -0.82579,0.400749 -1.55441,0.953288 -2.18589,1.657634 -0.63149,0.704345 -1.12938,1.524046 -1.49369,2.459126 -0.36432,0.93508 -0.54648,1.936936 -0.54648,3.005599 z m 27.41284,9.763642 c -2.06446,0 -3.60064,-0.68612 -4.60858,-2.05838 -1.00795,-1.37226 -1.51191,-3.418476 -1.51191,-6.138708 V 7.7831721 h 2.47734 V 18.494033 c 0,4.298939 1.46939,6.448376 4.40821,6.448376 0.72864,0 1.44511,-0.121438 2.14946,-0.364315 0.70435,-0.242878 1.35403,-0.595046 1.94909,-1.056514 0.59505,-0.461468 1.12937,-1.007935 1.60298,-1.639417 0.47361,-0.631483 0.85614,-1.347962 1.14759,-2.149459 V 7.7831721 h 2.47735 V 23.558012 c 0,0.680058 0.29145,1.020082 0.87435,1.020082 v 2.18589 c -0.29145,0.04857 -0.52825,0.07286 -0.71041,0.07286 h -0.38253 c -0.58291,-0.02429 -1.05651,-0.230731 -1.42083,-0.619336 -0.36432,-0.388605 -0.54647,-0.910784 -0.54647,-1.566554 v -2.18589 c -0.82579,1.481555 -1.94908,2.629135 -3.36992,3.442776 -1.42083,0.813641 -2.93273,1.220456 -4.53572,1.220456 z m 24.49832,0 c -1.31154,0 -2.52591,-0.273234 -3.64315,-0.819709 -1.11724,-0.546475 -2.07659,-1.269026 -2.87809,-2.167674 -0.8015,-0.898649 -1.4269,-1.936936 -1.87622,-3.114894 -0.44933,-1.177957 -0.67399,-2.410544 -0.67399,-3.697797 0,-1.335828 0.21859,-2.604846 0.65577,-3.807092 0.43718,-1.202245 1.0383,-2.252676 1.80336,-3.151324 0.76507,-0.8986486 1.67584,-1.6090557 2.73236,-2.1312432 1.05652,-0.5221874 2.21625,-0.7832772 3.47921,-0.7832772 1.603,0 3.02381,0.418958 4.26249,1.2568867 1.23867,0.8379287 2.21017,1.8519287 2.91452,3.0420307 V 0.16898859 h 2.47734 V 23.558012 c 0,0.680058 0.29145,1.020082 0.87436,1.020082 v 2.18589 c -0.36432,0.07286 -0.65577,0.109294 -0.87436,0.109294 -0.58291,0 -1.09294,-0.188227 -1.53012,-0.564688 -0.43718,-0.376461 -0.65577,-0.83185 -0.65577,-1.366181 v -1.858007 c -0.75292,1.238677 -1.77299,2.222318 -3.06025,2.950952 -1.28725,0.728633 -2.62306,1.092945 -4.00746,1.092945 z m 0.54647,-2.18589 c 0.6072,0 1.25688,-0.121438 1.94909,-0.364315 0.6922,-0.242878 1.34189,-0.57683 1.94908,-1.001867 0.6072,-0.425036 1.1233,-0.922928 1.54834,-1.493691 0.42504,-0.570763 0.68613,-1.184021 0.78328,-1.839791 v -5.865471 c -0.24288,-0.655771 -0.59505,-1.269028 -1.05652,-1.839791 -0.46146,-0.570763 -0.98972,-1.074727 -1.58477,-1.511907 -0.59505,-0.437181 -1.23259,-0.777205 -1.91265,-1.020082 -0.68006,-0.2428783 -1.34796,-0.3643154 -2.00373,-0.3643154 -1.02009,0 -1.94301,0.2185868 -2.7688,0.6557674 -0.82578,0.43718 -1.53619,1.014006 -2.13124,1.730496 -0.59505,0.71649 -1.05044,1.53619 -1.36618,2.459126 -0.31574,0.922936 -0.47361,1.870146 -0.47361,2.841657 0,1.020087 0.18216,1.991584 0.54647,2.91452 0.36432,0.922936 0.86221,1.730493 1.49369,2.422695 0.63149,0.692202 1.37832,1.244741 2.24054,1.657633 0.86222,0.412892 1.79121,0.619336 2.78701,0.619336 z"
       id="cloud"
       sketch:type="MSShapeGroup"
       inkscape:connector-curvature="0"
       style="fill:#ffffff" />
    <path
       d="m 0.0873285,17.218931 c 0,-1.335829 0.23073053,-2.598775 0.6921985,-3.788876 C 1.240995,12.239953 1.8906836,11.201666 2.7286122,10.315161 3.5665409,9.4286571 4.5683972,8.7303936 5.734211,8.2203501 6.9000248,7.7103065 8.1872583,7.4552886 9.59595,7.4552886 c 1.797296,0 3.363835,0.4068143 4.699664,1.2204552 1.335828,0.8136409 2.343756,1.9126472 3.023814,3.2970512 l -2.404479,0.765061 C 14.380618,11.766345 13.633779,11.007363 12.674412,10.460887 11.715044,9.9144121 10.652469,9.6411786 9.4866555,9.6411786 c -0.9715115,0 -1.8762181,0.1942994 -2.7141468,0.5829044 -0.8379286,0.388604 -1.5665514,0.916856 -2.1858899,1.58477 -0.6193386,0.667914 -1.1050871,1.463327 -1.45726,2.386263 -0.352173,0.922936 -0.5282568,1.930864 -0.5282568,3.023815 0,1.068662 0.1821557,2.07659 0.5464725,3.023814 0.3643168,0.947224 0.862209,1.766924 1.4936915,2.459126 0.6314825,0.692202 1.3661771,1.238669 2.2041057,1.639418 0.8379287,0.400748 1.7304916,0.60112 2.6777153,0.60112 0.607195,0 1.208308,-0.08501 1.803359,-0.255021 0.595051,-0.170014 1.14759,-0.406817 1.657634,-0.710414 0.510043,-0.303598 0.947217,-0.649693 1.311534,-1.038298 0.364316,-0.388604 0.619334,-0.801491 0.765061,-1.238671 l 2.44091,0.72863 c -0.267165,0.680058 -0.655764,1.305459 -1.165808,1.876222 -0.510043,0.570763 -1.111157,1.068656 -1.803359,1.493692 -0.692202,0.425036 -1.457256,0.752916 -2.295184,0.98365 -0.837929,0.230734 -1.706204,0.3461 -2.6048525,0.3461 -1.3844039,0 -2.6594937,-0.26109 -3.8253075,-0.783278 C 4.6412602,25.822834 3.6333321,25.106355 2.7832595,24.195563 1.9331869,23.284771 1.2713546,22.23434 0.79774275,21.044238 0.32413088,19.854136 0.0873285,18.579047 0.0873285,17.218931 Z M 22.50905,0.16898859 h 2.477342 V 22.465067 c 0,0.704345 0.1943,1.256884 0.582904,1.657633 0.388605,0.400748 0.935072,0.60112 1.639418,0.60112 0.267166,0 0.582902,-0.03643 0.947219,-0.109295 0.364317,-0.07286 0.704341,-0.170013 1.020082,-0.291452 l 0.437178,2.003733 c -0.461468,0.194302 -1.026151,0.35217 -1.694065,0.473609 -0.667914,0.121439 -1.24474,0.182158 -1.730496,0.182158 -1.141526,0 -2.040161,-0.321809 -2.695931,-0.965435 -0.65577,-0.643627 -0.983651,-1.548333 -0.983651,-2.714147 z M 41.506211,27.128299 c -1.384403,0 -2.653421,-0.26109 -3.807091,-0.783278 -1.15367,-0.522187 -2.155526,-1.238666 -3.005599,-2.149458 -0.850073,-0.910792 -1.511905,-1.961223 -1.985517,-3.151325 -0.473612,-1.190102 -0.710414,-2.465191 -0.710414,-3.825307 0,-1.335829 0.236802,-2.592703 0.710414,-3.770661 0.473612,-1.177957 1.129373,-2.210173 1.967301,-3.096677 0.837929,-0.8865044 1.839785,-1.5908397 3.005599,-2.1130272 1.165814,-0.5221874 2.42876,-0.7832772 3.788876,-0.7832772 1.384404,0 2.653422,0.2610898 3.807092,0.7832772 1.15367,0.5221875 2.143382,1.2325946 2.969167,2.1312432 0.825785,0.898648 1.469401,1.930863 1.93087,3.096677 0.461467,1.165814 0.692198,2.404473 0.692198,3.716013 v 0.582904 c 0,0.194302 -0.01214,0.327883 -0.03643,0.400747 H 34.584226 c 0.07286,1.020087 0.309666,1.961224 0.710415,2.823441 0.400748,0.862216 0.916856,1.609055 1.548338,2.240537 0.631483,0.631483 1.354034,1.123303 2.167675,1.475476 0.813641,0.352173 1.681916,0.528257 2.604852,0.528257 0.607195,0 1.21438,-0.08501 1.821575,-0.255021 0.607195,-0.170014 1.165805,-0.400745 1.675849,-0.692198 0.510044,-0.291454 0.971505,-0.649693 1.384397,-1.07473 0.412892,-0.425036 0.728629,-0.892569 0.947219,-1.402612 l 2.149458,0.582904 c -0.291453,0.704345 -0.704339,1.34189 -1.238671,1.912653 -0.534331,0.570763 -1.15366,1.068656 -1.858006,1.493692 -0.704346,0.425036 -1.481543,0.752916 -2.331616,0.98365 -0.850073,0.230734 -1.736564,0.3461 -2.6595,0.3461 z m 6.994848,-10.856587 c -0.07286,-1.020087 -0.309665,-1.949081 -0.710414,-2.78701 -0.400748,-0.837929 -0.910784,-1.56048 -1.530123,-2.167674 -0.619338,-0.607195 -1.335817,-1.0808 -2.149458,-1.4208289 -0.813641,-0.340029 -1.681917,-0.510041 -2.604853,-0.510041 -0.922935,0 -1.797283,0.170012 -2.623067,0.510041 -0.825785,0.3400289 -1.548336,0.8136339 -2.167675,1.4208289 -0.619338,0.607194 -1.117231,1.335817 -1.493691,2.18589 -0.376461,0.850072 -0.60112,1.772994 -0.673983,2.768794 z M 60.867688,26.763984 53.14421,7.7831721 h 2.550204 l 6.521239,16.6856269 6.55767,-16.6856269 h 2.404479 L 63.454324,26.763984 Z m 22.275995,0.364315 c -1.384403,0 -2.653421,-0.26109 -3.807091,-0.783278 -1.15367,-0.522187 -2.155526,-1.238666 -3.005599,-2.149458 -0.850073,-0.910792 -1.511905,-1.961223 -1.985517,-3.151325 -0.473612,-1.190102 -0.710414,-2.465191 -0.710414,-3.825307 0,-1.335829 0.236802,-2.592703 0.710414,-3.770661 0.473612,-1.177957 1.129373,-2.210173 1.967301,-3.096677 0.837929,-0.8865044 1.839785,-1.5908397 3.005599,-2.1130272 1.165814,-0.5221874 2.42876,-0.7832772 3.788876,-0.7832772 1.384404,0 2.653422,0.2610898 3.807092,0.7832772 1.15367,0.5221875 2.143382,1.2325946 2.969167,2.1312432 0.825785,0.898648 1.469402,1.930863 1.930869,3.096677 0.461468,1.165814 0.692199,2.404473 0.692199,3.716013 v 0.582904 c 0,0.194302 -0.01214,0.327883 -0.03643,0.400747 h -16.24845 c 0.07286,1.020087 0.309665,1.961224 0.710414,2.823441 0.400748,0.862216 0.916856,1.609055 1.548338,2.240537 0.631483,0.631483 1.354034,1.123303 2.167675,1.475476 0.813641,0.352173 1.681916,0.528257 2.604852,0.528257 0.607195,0 1.21438,-0.08501 1.821575,-0.255021 0.607195,-0.170014 1.165805,-0.400745 1.675849,-0.692198 0.510044,-0.291454 0.971505,-0.649693 1.384397,-1.07473 0.412892,-0.425036 0.728629,-0.892569 0.947219,-1.402612 l 2.149458,0.582904 c -0.291453,0.704345 -0.704339,1.34189 -1.23867,1.912653 -0.534332,0.570763 -1.153661,1.068656 -1.858007,1.493692 -0.704346,0.425036 -1.481543,0.752916 -2.331616,0.98365 -0.850073,0.230734 -1.736564,0.3461 -2.6595,0.3461 z m 6.994848,-10.856587 c -0.07286,-1.020087 -0.309665,-1.949081 -0.710414,-2.78701 -0.400748,-0.837929 -0.910784,-1.56048 -1.530123,-2.167674 -0.619338,-0.607195 -1.335817,-1.0808 -2.149458,-1.4208289 -0.813641,-0.340029 -1.681917,-0.510041 -2.604853,-0.510041 -0.922935,0 -1.797283,0.170012 -2.623067,0.510041 -0.825785,0.3400289 -1.548336,0.8136339 -2.167675,1.4208289 -0.619338,0.607194 -1.117231,1.335817 -1.493691,2.18589 -0.376461,0.850072 -0.60112,1.772994 -0.673983,2.768794 z M 106.80408,9.9690621 c -1.67586,0.048576 -3.13311,0.5100369 -4.37178,1.3843969 -1.23868,0.874361 -2.11303,2.076588 -2.623071,3.606719 V 26.763984 H 97.331886 V 7.7831721 h 2.331617 V 12.33711 c 0.704347,-1.457268 1.651557,-2.5987766 2.841657,-3.4245614 1.1901,-0.8257848 2.46519,-1.238671 3.82531,-1.238671 0.1943,0 0.35217,0.012144 0.47361,0.036431 z"
       id="clever"
       sketch:type="MSShapeGroup"
       inkscape:connector-curvature="0"
       style="fill:#ffffff" />
  </g>
</svg>
