<?xml version="1.0" encoding="UTF-8" standalone="no"?>
<svg
   xmlns:dc="http://purl.org/dc/elements/1.1/"
   xmlns:cc="http://creativecommons.org/ns#"
   xmlns:rdf="http://www.w3.org/1999/02/22-rdf-syntax-ns#"
   xmlns:svg="http://www.w3.org/2000/svg"
   xmlns="http://www.w3.org/2000/svg"
   viewBox="0 0 841.44 703.96002"
   height="703.96002"
   width="841.44"
   xml:space="preserve"
   id="svg2"
   version="1.1"><metadata
     id="metadata8"><rdf:RDF><cc:Work
         rdf:about=""><dc:format>image/svg+xml</dc:format><dc:type
           rdf:resource="http://purl.org/dc/dcmitype/StillImage" /></cc:Work></rdf:RDF></metadata><defs
     id="defs6" /><g
     transform="matrix(1.3333333,0,0,-1.3333333,0,703.96)"
     id="g10"><g
       transform="scale(0.1)"
       id="g12"><path
         id="path14"
         style="fill:#231f20;fill-opacity:1;fill-rule:nonzero;stroke:none"
         d="m 1556.25,1621.02 c -100.62,68.16 -248.35,135.57 -373.02,224.08 -32.18,19.97 -68.43,46.05 -108.57,78.24 L 3557.82,3499.26 3058.24,3823.87 31.6758,1923.25 3063.91,28.543 3595.96,345.52 2644.93,937.613 1556.25,1621.02" /><path
         id="path16"
         style="fill:#231f20;fill-opacity:1;fill-rule:nonzero;stroke:none"
         d="m 4779.87,3679.15 c 100.61,-68.16 235.84,-127.53 360.51,-216.04 32.19,-19.97 68.44,-46.05 108.58,-78.23 L 2765.8,1808.96 3265.38,1484.34 6291.94,3384.96 3259.71,5279.67 2727.66,4962.69 3786.98,4300.52 4779.87,3679.15" /><path
         id="path18"
         style="fill:#231f20;fill-opacity:1;fill-rule:nonzero;stroke:none"
         d="M 133.547,3773.85 H 0 v 1503.6 h 133.547 v -1503.6" /><path
         id="path20"
         style="fill:#231f20;fill-opacity:1;fill-rule:nonzero;stroke:none"
         d="M 902.16,5159.27 H 669.652 V 3773.85 H 536.109 V 5159.27 H 301.68 v 118.18 h 600.48 v -118.18" /><path
         id="path22"
         style="fill:#231f20;fill-opacity:1;fill-rule:nonzero;stroke:none"
         d="m 5232.86,0 h -147 L 4739.02,722.5 V 0 h -133.54 v 1503.61 h 133.54 V 828.184 l 315.13,675.426 h 145.08 v -8.66 L 4859.12,779.18 5232.86,0" /><path
         id="path24"
         style="fill:#231f20;fill-opacity:1;fill-rule:nonzero;stroke:none"
         d="m 5958.23,704.238 c 0,-31.386 -10.09,-57.156 -30.26,-77.332 -20.18,-20.176 -45.97,-30.265 -77.34,-30.265 H 5496.11 V 0 h -133.55 v 1503.61 h 488.07 c 31.37,0 57.16,-9.95 77.34,-29.79 20.17,-19.86 30.26,-45.49 30.26,-76.87 z m -133.54,11.535 V 1385.43 H 5496.11 V 715.773 h 328.58" /><path
         id="path26"
         style="fill:#231f20;fill-opacity:1;fill-rule:nonzero;stroke:none"
         d="M 6310.84,0 H 6177.3 v 1503.61 h 133.54 V 0" /><path
         id="path28"
         style="fill:#231f20;fill-opacity:1;fill-rule:nonzero;stroke:none"
         d="M 4219.23,3665.74 1578.06,1950.21 2075.75,1637.79 4707.78,3360.85 4219.23,3665.74" /></g></g></svg>