<?xml version="1.0" encoding="utf-8"?>
<!-- Generator: Adobe Illustrator 18.1.1, SVG Export Plug-In . SVG Version: 6.00 Build 0)  -->
<svg version="1.1" id="Layer_1" xmlns="http://www.w3.org/2000/svg" xmlns:xlink="http://www.w3.org/1999/xlink" x="0px" y="0px"
	 viewBox="0 0 686 210" enable-background="new 0 0 686 210" xml:space="preserve">
<g>
	<g>
		<polygon fill="#2B2523" points="461.8,56.2 436.2,114.4 407.1,56.2 372,56.2 420.6,149.8 395.5,206.7 427.1,206.7 493.5,56.2 		
			"/>
		<path fill="#2B2523" d="M160.9,153l-59.5-64.3c11-4.8,27.6-16.7,27.6-37.9C129.1,8.1,89.4,7.1,84,7.1s-34.8,0-34.8,0V7H17.6v146
			h31.6V93h18.5l52.5,60.1h40.7V153z M49.2,33.5c0,0,27.7,0,29.5,0c3.1,0,16.9,2.2,16.9,16.8c0,10.3-9.4,15.8-17,15.8
			c-3.9,0-29.4,0-29.4,0S49.2,33.5,49.2,33.5z"/>
		<path fill="#2B2523" d="M328.7,53c-10.3,0-19.8,3.3-27.6,8.9V5.4h-31.6v148.1H301v-6.7c7.9,5.6,17.4,8.9,27.6,8.9
			c27.1,0,49-23,49-51.3S355.8,53,328.7,53z M324,129.5c-11.7,0-21.4-9.4-23-21.5v-7.2c1.6-12.2,11.3-21.5,23-21.5
			c12.8,0,23.2,11.3,23.2,25.1C347.3,118.2,336.9,129.5,324,129.5z"/>
		<path fill="#2B2523" d="M253.6,56.2h-31.1v53.9c-0.2,10.1-8.5,18.1-18.6,18.1c-9.8,0-17.8-7.5-18.5-17.1V56.2h-30.6v55v0.2
			c0,25.2,23.6,44.2,49.1,44.2c25.7,0,49.6-19.4,49.6-44.7v-0.2V56.2H253.6z"/>
		
			<linearGradient id="SVGID_1_" gradientUnits="userSpaceOnUse" x1="511" y1="132.8" x2="667.5" y2="132.8" gradientTransform="matrix(1 0 0 -1 0 210)">
			<stop  offset="0" style="stop-color:#DC2018"/>
			<stop  offset="1" style="stop-color:#B61E1A"/>
		</linearGradient>
		<polygon fill="url(#SVGID_1_)" points="595.9,105.8 552.7,56.3 569.3,34.7 622.9,34.7 643.6,57.9 667.5,34 640.9,3.1 551.2,3.1 
			511,56.5 595.7,151.3 644,103.6 621.1,80.5 		"/>
	</g>
</g>
</svg>
